<svg xmlns="http://www.w3.org/2000/svg" viewBox="0 0 24 24"><title>OpenRouter</title><path fill="#6B73FF" d="M16.778 1.844v1.919q-1.277-.057-2.553.005c-1.93.126-4.023.728-6.149 2.237-2.911 2.066-2.731 1.95-4.14 2.75C2.541 9.544 0 9.886 0 9.886v4.229s2.4.332 3.795 1.132c1.41.798 1.228.683 4.14 2.75 2.126 1.509 4.22 2.11 6.148 2.236.88.058 1.716.041 2.555.005v1.918l7.222-4.168-7.222-4.17v2.176c-.86.038-1.611.065-2.278.021-1.364-.09-2.417-.357-3.979-1.465-2.244-1.593-2.866-2.027-3.68-2.508.889-.518 1.449-.906 3.822-2.59 1.56-1.109 2.614-1.377 3.978-1.466.667-.044 1.418-.017 2.278.02v2.176L24 6.014Z"/></svg>
