<svg xmlns="http://www.w3.org/2000/svg" viewBox="0 0 24 24"><title>Meta</title><path fill="#0081FB" d="M6.915 4.03c-1.968 0-3.683 1.28-4.871 3.113C.704 9.208 0 11.883 0 14.449c0 2.256.71 5.521 4.439 5.521 1.497 0 2.633-.671 3.965-2.444.76-1.012 1.144-1.626 2.663-4.32l.942-1.664 2.335 3.895c.724 1.21 1.665 2.556 2.47 3.314 1.046.987 1.992 1.22 3.06 1.22 3.059 0 4.126-2.39 4.126-5.56 0-2.72-.681-5.357-2.084-7.45-1.282-1.912-2.957-2.93-4.716-2.93-1.757 0-3.4 1.273-4.873 3.358-1.957-2.48-3.633-3.359-5.412-3.359Zm10.16 2.053c1.147 0 2.188.758 2.992 1.999 1.132 1.748 1.647 4.195 1.647 6.4 0 1.548-.368 2.9-1.839 2.9-.58 0-1.027-.23-1.664-1.004-.496-.601-1.343-1.878-2.832-4.358l-1.872-3.008c1.19-1.883 2.26-2.929 3.569-2.929Zm-10.201.553c1.265 0 2.058.791 2.675 1.446.307.327.737.871 1.234 1.579l-1.02 1.566c-.757 1.163-1.882 3.017-2.837 4.338-1.191 1.649-1.81 1.817-2.486 1.817-1.18 0-1.847-1.079-1.847-2.84 0-2.221.63-4.535 1.66-6.088.74-1.118 1.618-1.818 2.621-1.818Z"/></svg>
