<svg xmlns="http://www.w3.org/2000/svg" viewBox="0 0 24 24"><title>OpenAI</title><path fill="#10A37F" d="M22.281 9.821a5.984 5.984 0 0 0-.515-4.91 6.046 6.046 0 0 0-6.51-2.731A6.065 6.065 0 0 0 4.98 4.35a5.984 5.984 0 0 0-3.998 2.9 6.046 6.046 0 0 0 .743 7.072 5.98 5.98 0 0 0 .511 4.91 6.05 6.05 0 0 0 6.516 2.73 5.98 5.98 0 0 0 4.508 2.01 6.046 6.046 0 0 0 5.77-4.197 5.99 5.99 0 0 0 3.997-2.9 6.043 6.043 0 0 0-.746-7.054ZM12 9.06l2.605 1.499v2.997l-2.596 1.499-2.605-1.499v-2.997Zm3.695 2.123 2.018 1.168v5.579a4.49 4.49 0 0 1-7.328 3.5l4.917-2.836a.795.795 0 0 0 .393-.681Zm-1.09 3.631v2.33l-4.868 2.851A4.49 4.49 0 0 1 3.066 15.34l4.922 2.841a.77.77 0 0 0 .78 0Zm-3.702.867-2.018 1.168-4.898-2.785A4.49 4.49 0 0 1 4.706 5.98v5.673c0 .278.147.535.387.676Zm2.198-7.257 2.014-1.163 4.898 2.79a4.49 4.49 0 0 1-.676 8.1v-5.673a.79.79 0 0 0-.406-.669Zm-3.69.866V6.96l4.854-2.846a4.5 4.5 0 0 1 6.676 4.675l-4.912-2.865a.775.775 0 0 0-.785 0Zm-1.103 3.633L6.29 11.76a.08.08 0 0 1-.038-.057V6.137a4.5 4.5 0 0 1 7.37-3.45L8.705 5.523a.795.795 0 0 0-.392.681Z"/></svg>
