<svg xmlns="http://www.w3.org/2000/svg" viewBox="0 0 24 24"><title>AWS</title><path fill="#FF9900" d="M3.1 13.8c4.8 3.7 11.7 5.6 17.8 2.2.6-.3 1.1.4.5.9-5.5 4.4-13.9 3.1-18.8-1.9-.5-.5-.1-1.6.5-1.2m17.4-.7c1.1-.1 3.6-.4 4 .2.4.5-.5 2.8-.9 3.8-.2.5.2.7.6.3 2.5-2.1 3.1-6.4 2.6-7-.5-.6-4.8-1.1-7.4.7-.4.3-.3.7.1.6z" transform="scale(.8) translate(1 2)"/><path fill="#E7E7E7" d="M6.7 12.1c-.5.4-1.2.7-1.9.7-1.1 0-1.8-.7-1.8-2 0-1 .4-1.8 1.2-2.2.7-.4 1.7-.5 2.5-.5v-.4c0-.8-.2-1.2-1-1.2-.6 0-1 .3-1.1.9l-1.4-.1c.1-1.5 1.3-2 2.6-2 .7 0 1.6.2 2 .8.5.5.4 1.3.4 2.1v2c0 .6.2.9.5 1.3l-1.3 1.1c-.3-.2-.5-.4-.7-.5m0-2.2v-.6c-1 0-2.1.2-2.1 1.4 0 .6.3 1 .8 1 .4 0 .8-.3 1-.7.3-.4.3-.8.3-1.1m7.7 2.7h-1.5l-1-4.3-1 4.3H9.4L7.8 5.5h1.6l.9 4.5 1-4.5h1.4l1 4.5.9-4.5h1.5zm4-5.1c-.1-.6-.5-.9-1.1-.9-.4 0-.9.2-.9.7 0 .4.4.6 1.3.9 1.4.4 2.2.9 2.2 2.2 0 1.5-1.3 2.3-2.7 2.3-1.5 0-2.6-.6-2.9-2.1l1.5-.2c.1.7.6 1.1 1.4 1.1.5 0 1-.2 1-.8 0-.5-.5-.7-1.5-1-1.2-.4-2-.8-2-2 0-1.4 1.2-2.2 2.5-2.2 1.4 0 2.4.6 2.7 1.9z"/></svg>
