<svg width="20" height="20" viewBox="0 0 20 20" fill="none" xmlns="http://www.w3.org/2000/svg">
<path fill-rule="evenodd" clip-rule="evenodd" d="M11.4868 3.53298C12.8635 2.15653 15.0956 2.15644 16.4722 3.53298C17.8482 4.90951 17.8483 7.1409 16.4722 8.51736L9.33938 15.6511C9.29226 15.6983 9.25251 15.7383 9.21243 15.7761C8.91513 16.0565 8.5703 16.2826 8.19583 16.4451L8.03176 16.5125L6.15383 17.2625C5.62778 17.4725 5.16759 17.6575 4.79739 17.7683C4.45523 17.8708 3.96382 17.9853 3.46926 17.822C2.86104 17.6208 2.38333 17.1432 2.18215 16.5349C2.01886 16.0403 2.1344 15.55 2.23684 15.2078C2.34774 14.8374 2.53246 14.3769 2.7427 13.8504L3.49172 11.9734C3.51767 11.9084 3.53852 11.8581 3.56008 11.8084C3.72253 11.4339 3.94873 11.09 4.22903 10.7927C4.26685 10.7527 4.3069 10.7129 4.35403 10.6658L11.4868 3.53298ZM2.94094 17.3699C3.11108 17.5047 3.30588 17.6106 3.51711 17.6804C3.56847 17.6974 3.62013 17.7098 3.67141 17.7205C3.61981 17.7097 3.56782 17.6965 3.51614 17.6795C3.30509 17.6097 3.11088 17.5044 2.94094 17.3699ZM6.09817 17.1228C5.5688 17.3342 5.1159 17.5163 4.75344 17.6248C4.93455 17.5705 5.13936 17.4973 5.36379 17.4119L6.09817 17.1228ZM15.023 4.9822C14.4471 4.40629 13.5131 4.40651 12.937 4.9822L5.80325 12.115C5.74847 12.1698 5.73381 12.1856 5.72122 12.199C5.60371 12.3236 5.50784 12.4674 5.43997 12.6238C5.43284 12.6402 5.42617 12.6577 5.39602 12.7332L4.64602 14.6121C4.42092 15.1758 4.279 15.5342 4.20071 15.7957C4.19972 15.799 4.19873 15.8022 4.19778 15.8054C4.20128 15.8045 4.20596 15.8046 4.2095 15.8035C4.47099 15.7251 4.82968 15.5831 5.39309 15.3582L7.27102 14.6092C7.34586 14.5793 7.36407 14.5723 7.3804 14.5652C7.53673 14.4974 7.68064 14.4014 7.8052 14.284C7.81862 14.2713 7.834 14.2561 7.88919 14.201L15.023 7.06814C15.5985 6.49226 15.5984 5.55816 15.023 4.9822ZM9.23196 15.5447C9.18333 15.5933 9.14688 15.631 9.10891 15.6668L9.23196 15.5447ZM16.5972 3.89529C16.6095 3.91041 16.6213 3.92591 16.6333 3.94119C16.586 3.88109 16.5368 3.82193 16.4849 3.76443L16.5972 3.89529Z" fill="black" style="fill:black;fill-opacity:1;"/>
</svg>
