<svg width="20" height="20" viewBox="0 0 20 20" fill="none" xmlns="http://www.w3.org/2000/svg">
<path d="M9.96973 5.96973C10.2626 5.67684 10.7374 5.67684 11.0303 5.96973L14.5303 9.46973C14.8232 9.76262 14.8232 10.2374 14.5303 10.5303L11.0303 14.0303C10.7374 14.3232 10.2626 14.3232 9.96973 14.0303C9.67684 13.7374 9.67683 13.2626 9.96973 12.9697L12.25 10.75H6.5C6.08579 10.75 5.75 10.4142 5.75 10C5.75 9.58579 6.08579 9.25 6.5 9.25H12.25L9.96973 7.03027C9.67684 6.73738 9.67683 6.26262 9.96973 5.96973Z" fill="black" style="fill:black;fill-opacity:1;"/>
<path d="M10 1.125C14.9015 1.125 18.875 5.09847 18.875 10C18.875 14.9015 14.9015 18.875 10 18.875C5.09847 18.875 1.125 14.9015 1.125 10C1.125 5.09847 5.09847 1.125 10 1.125ZM10 2.875C6.06497 2.875 2.875 6.06497 2.875 10C2.875 13.935 6.06497 17.125 10 17.125C13.935 17.125 17.125 13.935 17.125 10C17.125 6.06497 13.935 2.875 10 2.875Z" fill="black" style="fill:black;fill-opacity:1;"/>
</svg>
