<svg width="20" height="20" viewBox="0 0 20 20" fill="none" xmlns="http://www.w3.org/2000/svg">
<path d="M12.2969 6.97949C12.5844 6.59115 13.1321 6.50946 13.5205 6.79688C13.9089 7.08436 13.9906 7.63209 13.7031 8.02051L10.0029 13.0205C9.84767 13.2302 9.60721 13.3601 9.34668 13.374C9.08618 13.3879 8.83295 13.2847 8.65625 13.0928L6.35645 10.5928C6.02939 10.2373 6.05197 9.68368 6.40723 9.35645C6.76274 9.02938 7.31632 9.05196 7.64355 9.40723L9.22656 11.127L12.2969 6.97949Z" fill="black" style="fill:black;fill-opacity:1;"/>
<path d="M10 1.125C14.9015 1.125 18.875 5.09847 18.875 10C18.875 14.9015 14.9015 18.875 10 18.875C5.09847 18.875 1.125 14.9015 1.125 10C1.125 5.09847 5.09847 1.125 10 1.125ZM10 2.875C6.06497 2.875 2.875 6.06497 2.875 10C2.875 13.935 6.06497 17.125 10 17.125C13.935 17.125 17.125 13.935 17.125 10C17.125 6.06497 13.935 2.875 10 2.875Z" fill="black" style="fill:black;fill-opacity:1;"/>
</svg>
